<?xml version="1.0" encoding="iso-8859-1"?>
<!-- Generator: Adobe Illustrator 19.0.0, SVG Export Plug-In . SVG Version: 6.00 Build 0)  -->
<svg xmlns="http://www.w3.org/2000/svg" xmlns:xlink="http://www.w3.org/1999/xlink" version="1.1" id="Capa_1" x="0px" y="0px" viewBox="0 0 511.634 511.634" style="enable-background:new 0 0 511.634 511.634;" xml:space="preserve" width="512px" height="512px">
<g>
	<g>
		<path d="M208.56,193.931c-1.561-1.562-4.09-1.562-5.652,0c-15.512,15.513-40.752,15.513-56.264,0    c-7.538-7.534-11.687-17.527-11.687-28.14c0-10.61,4.149-20.603,11.691-28.137c2.967-2.974,6.355-5.446,10.075-7.342    c1.964-1.003,2.744-3.412,1.741-5.379c-1.004-1.964-3.412-2.733-5.379-1.741c-4.466,2.279-8.537,5.246-12.093,8.814    c-9.049,9.037-14.029,21.036-14.029,33.785s4.981,24.752,14.029,33.792c9.314,9.314,21.552,13.971,33.785,13.971    c12.234,0,24.471-4.657,33.783-13.971C210.122,198.022,210.122,195.493,208.56,193.931z" fill="#2380c2"/>
	</g>
</g>
<g>
	<g>
		<path d="M341.156,131.156c-2.209,0-3.997,1.788-3.997,3.997s1.788,3.997,3.997,3.997c21.937,0,39.784,17.851,39.784,39.792    c0,6.102-1.335,11.941-3.958,17.363c-0.96,1.987-0.133,4.376,1.858,5.34c0.561,0.269,1.155,0.398,1.741,0.398    c1.482,0,2.904-0.828,3.599-2.256c3.153-6.511,4.755-13.526,4.755-20.845C388.935,152.594,367.505,131.156,341.156,131.156z" fill="#2380c2"/>
	</g>
</g>
<g>
	<g>
		<path d="M327.719,83.152c-2.107-0.18-4.129,1.444-4.317,3.646c-0.187,2.198,1.444,4.134,3.646,4.317    c20.743,1.753,36.388,18.799,36.388,39.651c0,3.725-0.5,7.378-1.491,10.852c-0.6,2.124,0.633,4.336,2.756,4.938    c0.367,0.105,0.734,0.152,1.093,0.152c1.741,0,3.349-1.148,3.849-2.904c1.186-4.188,1.787-8.572,1.787-13.038    C371.43,105.722,352.639,85.252,327.719,83.152z" fill="#2380c2"/>
	</g>
</g>
<g>
	<g>
		<path d="M265.935,215.877c-1.374-1.753-3.891-2.045-5.616-0.675c-10.064,7.896-33.918,7.896-41.756,7.896    c-14.872,0-28.8-5.797-39.222-16.324c-1.557-1.573-4.083-1.581-5.652-0.031c-1.569,1.553-1.585,4.083-0.031,5.652    c11.936,12.057,27.882,18.697,44.905,18.697c14.79,0,35.724-0.995,46.693-9.606C266.997,220.124,267.293,217.614,265.935,215.877z    " fill="#2380c2"/>
	</g>
</g>
<g>
	<g>
		<path d="M273.298,47.965c-34.804,0-63.112,28.304-63.112,63.096c0,2.209,1.788,3.997,3.997,3.997c2.209,0,3.997-1.788,3.997-3.997    c0-30.385,24.725-55.102,55.118-55.102c30.392,0,55.117,24.717,55.117,55.102c0,2.209,1.787,3.997,3.997,3.997    c2.209,0,3.997-1.788,3.997-3.997C336.409,76.269,308.101,47.965,273.298,47.965z" fill="#2380c2"/>
	</g>
</g>
<g>
	<g>
		<path d="M335.994,236.722c-0.975-1.988-3.404-2.784-5.355-1.812c-7.651,3.787-15.895,5.707-24.506,5.707    c-17.581,0-33.695-8.065-44.199-22.129c-1.327-1.765-3.829-2.135-5.598-0.808c-1.768,1.32-2.131,3.825-0.808,5.594    c12.031,16.102,30.471,25.337,50.605,25.337c9.853,0,19.291-2.197,28.05-6.534C336.166,241.098,336.971,238.701,335.994,236.722z" fill="#2380c2"/>
	</g>
</g>
<g>
	<g>
		<path d="M226.732,71.753c-4.313-0.901-8.721-1.358-13.096-1.358c-34.795,0-63.103,28.308-63.103,63.103    c0,8.733,1.741,17.188,5.176,25.131c0.652,1.511,2.123,2.412,3.673,2.412c0.527,0,1.066-0.106,1.581-0.329    c2.025-0.874,2.959-3.228,2.084-5.254c-2.998-6.94-4.52-14.325-4.52-21.961c0-30.388,24.721-55.108,55.109-55.108    c3.829,0,7.686,0.398,11.464,1.187c2.144,0.456,4.279-0.941,4.728-3.096C230.28,74.321,228.894,72.202,226.732,71.753z" fill="#2380c2"/>
	</g>
</g>
<g>
	<g>
		<path d="M387.825,133.327c-2.092-0.66-4.356,0.527-5.004,2.631c-0.656,2.108,0.524,4.348,2.631,5.004    c16.668,5.191,27.871,20.454,27.871,37.98c0,8.717-2.756,16.988-7.955,23.925c-1.328,1.767-0.969,4.274,0.796,5.597    c0.717,0.538,1.561,0.8,2.396,0.8c1.21,0,2.412-0.551,3.194-1.595c6.26-8.334,9.563-18.268,9.563-28.726    C421.317,157.895,407.858,139.565,387.825,133.327z" fill="#2380c2"/>
	</g>
</g>
<g>
	<g>
		<path d="M370.362,85.162c-2.14-0.68-4.349,0.515-5.012,2.623c-0.656,2.104,0.515,4.348,2.623,5.004    c16.643,5.204,27.831,20.466,27.831,37.977c0,3.713-0.499,7.367-1.475,10.868c-0.594,2.127,0.647,4.332,2.771,4.926    c0.358,0.101,0.725,0.148,1.077,0.148c1.748,0,3.357-1.156,3.851-2.92c1.178-4.2,1.771-8.584,1.771-13.022    C403.799,109.738,390.363,91.411,370.362,85.162z" fill="#2380c2"/>
	</g>
</g>
<g>
	<g>
		<path d="M406.803,235.207c-0.718-2.092-2.982-3.213-5.074-2.494c-2.092,0.71-3.209,2.982-2.498,5.07    c0.32,0.929,7.509,22.855-13.686,31.837c-29.869,12.662-44.117-12.1-44.703-13.162c-1.077-1.913-3.489-2.62-5.426-1.558    c-1.928,1.065-2.638,3.485-1.576,5.418c0.148,0.261,11.827,20.926,35.459,20.926c5.747,0,12.203-1.226,19.369-4.255    C411.034,267.497,410.309,245.508,406.803,235.207z" fill="#2380c2"/>
	</g>
</g>
<g>
	<g>
		<path d="M379.496,290.417c-0.749-2.062-3.014-3.107-5.098-2.374c-2.068,0.735-3.147,3.03-2.42,5.099    c0.047,0.14,4.918,14.497-0.18,45.975c-0.359,2.179,1.124,4.232,3.303,4.591c0.217,0.031,0.428,0.047,0.647,0.047    c1.921,0,3.622-1.39,3.936-3.359C385.18,306.53,379.73,291.057,379.496,290.417z" fill="#2380c2"/>
	</g>
</g>
<g>
	<g>
		<path d="M395.438,282.313c-0.821-2.045-3.139-3.044-5.177-2.225c-2.045,0.805-3.052,3.131-2.248,5.176    c0.078,0.195,7.393,19.518-0.188,53.626c-0.477,2.156,0.883,4.287,3.037,4.771c0.289,0.063,0.586,0.094,0.866,0.094    c1.835,0,3.49-1.266,3.904-3.131C403.798,303.869,395.789,283.172,395.438,282.313z" fill="#2380c2"/>
	</g>
</g>
<g>
	<g>
		<path d="M399.91,267.216c-0.319-2.186-2.373-3.63-4.543-3.357c-7.691,1.186-10.009-5.242-10.392-6.554    c-0.6-2.116-2.779-3.35-4.91-2.764c-2.123,0.585-3.381,2.783-2.795,4.914c1.273,4.606,6.215,12.538,16.223,12.538    c0.968,0,1.99-0.071,3.061-0.234C398.739,271.431,400.238,269.402,399.91,267.216z" fill="#2380c2"/>
	</g>
</g>
<g>
	<g>
		<path d="M380.62,271.877c-10.743-2.069-13.038-9.747-13.147-10.133c-0.554-2.109-2.694-3.374-4.848-2.854    c-2.14,0.542-3.436,2.716-2.889,4.859c0.133,0.523,3.442,12.913,19.368,15.98c0.258,0.047,0.508,0.07,0.766,0.07    c1.874,0,3.552-1.326,3.919-3.237C384.203,274.391,382.79,272.291,380.62,271.877z" fill="#2380c2"/>
	</g>
</g>
<g>
	<g>
		<path d="M283.571,258.471c-0.57-1.592-2.076-2.654-3.763-2.654h-22.487l9.356-9.572c1.546-1.581,1.515-4.11-0.062-5.652    c-1.577-1.542-4.118-1.511-5.656,0.062l-15.993,16.363c-1.124,1.152-1.452,2.866-0.828,4.345c0.625,1.483,2.077,2.447,3.685,2.447    h20.79l-56.054,45.857l22.527-31.539c0.87-1.218,0.988-2.826,0.305-4.153c-0.688-1.335-2.058-2.171-3.557-2.171h-22.328    l25.154-25.153c1.562-1.561,1.561-4.09,0-5.652c-1.561-1.562-4.09-1.562-5.652,0l-31.977,31.978    c-1.144,1.138-1.487,2.856-0.867,4.355c0.617,1.499,2.077,2.467,3.693,2.467h24.21l-35.455,49.637    c-1.167,1.632-0.945,3.872,0.519,5.246c0.765,0.719,1.748,1.078,2.732,1.078c0.894,0,1.791-0.297,2.53-0.907l87.945-71.944    C283.649,261.836,284.141,260.06,283.571,258.471z" fill="#2380c2"/>
	</g>
</g>
<g>
	<g>
		<path d="M388.021,182.702c-1.108-1.913-3.544-2.561-5.457-1.456c-1.904,1.101-2.561,3.544-1.46,5.457    c0.14,0.25,14.209,25.181,0.819,42.388c-17.924,23.054-46.28,6.667-47.474,5.968c-1.874-1.124-4.349-0.504-5.473,1.397    c-1.124,1.894-0.506,4.341,1.39,5.473c6.09,3.626,16.043,7.366,26.716,7.366c10.742,0,22.202-3.791,31.15-15.294    C404.947,212.516,388.724,183.908,388.021,182.702z" fill="#2380c2"/>
	</g>
</g>
<g>
	<g>
		<path d="M479.011,144.053c-12.149-49.746-47.997-90.256-106.549-120.398C342.405,8.178,307.414,0,271.276,0    C205.498,0,142.87,27.39,107.833,71.488c-29.167,36.708-38.621,82.565-27.379,132.71l-51.971,93.651    c-0.531,0.952-0.648,2.077-0.324,3.123c0.321,1.038,1.054,1.906,2.03,2.389l29.397,14.692l-5.832,40.37    c-0.183,1.249,0.238,2.506,1.132,3.403l7.081,7.05l-4.153,9.212c-0.765,1.686-0.261,3.693,1.218,4.825l8.232,6.261    c-5.711,17.801-9.622,37.403,0.507,51.456c13.436,18.651,48.767,23.484,112.1,15.591v51.416c0,2.209,1.788,3.997,3.997,3.997    h223.849c1.203,0,2.342-0.539,3.1-1.468c0.757-0.937,1.054-2.154,0.812-3.342c-0.219-1.092-22.133-109.842,9.876-155.021    C445.706,317.64,499.753,229.004,479.011,144.053z M402.884,503.64H187.865h-0.001v-51.961c0-1.155-0.495-2.249-1.362-3.006    c-0.862-0.757-1.998-1.116-3.157-0.96c-62.147,8.181-97.454,4.387-109.09-11.758c-6.792-9.423-6.347-23.467,1.483-46.967    c0.543-1.623-0.008-3.403-1.366-4.449l-7.967-6.059l3.985-8.837c0.688-1.522,0.36-3.31-0.819-4.481l-7.62-7.588l5.957-41.229    c0.25-1.703-0.624-3.374-2.166-4.146l-28.246-14.123l50.687-91.337c0.48-0.867,0.625-1.878,0.402-2.842    c-11.199-48.274-2.381-92.34,25.505-127.436c33.559-42.232,93.789-68.467,157.186-68.467c34.865,0,68.591,7.873,97.531,22.765    c56.398,29.037,90.865,67.795,102.435,115.191c19.97,81.754-32.696,167.966-56.265,201.231    C384.584,390.08,398.832,481.406,402.884,503.64z" fill="#2380c2"/>
	</g>
</g>
<g>
</g>
<g>
</g>
<g>
</g>
<g>
</g>
<g>
</g>
<g>
</g>
<g>
</g>
<g>
</g>
<g>
</g>
<g>
</g>
<g>
</g>
<g>
</g>
<g>
</g>
<g>
</g>
<g>
</g>
</svg>
