<?xml version="1.0" encoding="iso-8859-1"?>
<!-- Generator: Adobe Illustrator 19.0.0, SVG Export Plug-In . SVG Version: 6.00 Build 0)  -->
<svg xmlns="http://www.w3.org/2000/svg" xmlns:xlink="http://www.w3.org/1999/xlink" version="1.1" id="Layer_1" x="0px" y="0px" viewBox="0 0 512 512" style="enable-background:new 0 0 512 512;" xml:space="preserve" width="512px" height="512px">
<g>
	<g>
		<path d="M463.999,256c0-16.283-1.875-32.126-5.413-47.333l44.717-36.328l-51.2-88.682l-53.877,20.584    c-23.016-21.581-50.941-37.982-81.925-47.354L307.199,0h-102.4l-9.102,56.89c-30.982,9.371-58.907,25.773-81.925,47.354    L59.897,83.659l-51.2,88.682l44.717,36.328c-3.539,15.205-5.414,31.048-5.414,47.331s1.875,32.126,5.413,47.333L8.697,339.661    l51.2,88.68l53.875-20.584c23.018,21.581,50.942,37.982,81.925,47.354l9.102,56.89h102.4l9.102-56.891    c30.982-9.371,58.907-25.773,81.925-47.354l53.875,20.584l51.2-88.682l-44.717-36.328    C462.124,288.126,463.999,272.283,463.999,256z M430.999,368.894l-15.64-5.976L387.305,352.2l-21.909,20.542    c-17.894,16.778-39.675,29.373-62.99,36.426l-28.755,8.698l-4.746,29.664L266.268,464h-20.539l-2.635-16.474l-4.746-29.664    l-28.755-8.698c-23.314-7.051-45.096-19.646-62.99-36.426l-21.909-20.542l-28.054,10.718l-15.64,5.976L70.73,351.104    l12.949-10.518l23.283-18.917l-6.8-29.218c-2.763-11.874-4.163-24.138-4.163-36.451s1.4-24.579,4.165-36.453l6.8-29.219    l-23.285-18.915L70.73,160.894l10.269-17.787l15.642,5.976l28.053,10.718l21.909-20.541    c17.894-16.778,39.675-29.373,62.989-36.426l28.755-8.698l4.746-29.664L245.73,48h20.539l2.635,16.474l4.746,29.664l28.755,8.698    c23.314,7.051,45.096,19.646,62.989,36.424l21.907,20.541l28.054-10.718l15.642-5.976l10.269,17.787l-12.949,10.518    l-23.283,18.915l6.8,29.219c2.765,11.875,4.165,24.141,4.165,36.454s-1.4,24.578-4.165,36.451l-6.8,29.219l23.285,18.915    l12.949,10.52L430.999,368.894z" fill="#368ac7"/>
	</g>
</g>
<g>
	<g>
		<path d="M255.999,136c-66.274,0-120,53.726-120,120s53.726,120,120,120s120-53.726,120-120S322.273,136,255.999,136z M255.999,328    c-39.701,0-72-32.299-72-72c0-31.288,20.067-57.965,48-67.872V280h8h40h24v-48h-24v-43.872c27.933,9.907,48,36.584,48,67.872    C327.999,295.701,295.7,328,255.999,328z" fill="#368ac7"/>
	</g>
</g>
<g>
</g>
<g>
</g>
<g>
</g>
<g>
</g>
<g>
</g>
<g>
</g>
<g>
</g>
<g>
</g>
<g>
</g>
<g>
</g>
<g>
</g>
<g>
</g>
<g>
</g>
<g>
</g>
<g>
</g>
</svg>
